HIERARCHY
ROOT Hips
{
	OFFSET 0.000000 0.000000 0.000000 
	CHANNELS 6 Xposition Yposition Zposition Zrotation Yrotation Xrotation
	JOINT LeftUpLeg
	{
		OFFSET 1.363060 -1.794630 0.839290 
		CHANNELS 3 Zrotation Yrotation Xrotation
		JOINT LeftLeg
		{
			OFFSET 2.448110 -6.726130 0.000000 
			CHANNELS 3 Zrotation Yrotation Xrotation
			JOINT LeftFoot
			{
				OFFSET 2.562200 -7.039590 0.000000 
				CHANNELS 3 Zrotation Yrotation Xrotation
				JOINT LeftToeBase
				{
					OFFSET 0.157640 -0.433110 2.322550 
					CHANNELS 3 Zrotation Yrotation Xrotation
					End Site
					{
						OFFSET 0.000000 0.000000 0.000000 
					}
				}
			}
		}
	}
	JOINT RightUpLeg
	{
		OFFSET -1.305520 -1.794630 0.839290 
		CHANNELS 3 Zrotation Yrotation Xrotation
		JOINT RightLeg
		{
			OFFSET -2.542530 -6.985550 0.000000 
			CHANNELS 3 Zrotation Yrotation Xrotation
			JOINT RightFoot
			{
				OFFSET -2.568260 -7.056230 0.000000 
				CHANNELS 3 Zrotation Yrotation Xrotation
				JOINT RightToeBase
				{
					OFFSET -0.164730 -0.452590 2.363150 
					CHANNELS 3 Zrotation Yrotation Xrotation
					End Site
					{
						OFFSET 0.000000 0.000000 0.000000 
					}
				}
			}
		}
	}
	JOINT Spine
	{
		OFFSET 0.028270 2.035590 -0.193380 
		CHANNELS 3 Zrotation Yrotation Xrotation
		JOINT Spine1
		{
			OFFSET 0.056720 2.048850 -0.042750 
			CHANNELS 3 Zrotation Yrotation Xrotation
			JOINT Neck1
			{
				OFFSET -0.054170 1.746240 0.172020 
				CHANNELS 3 Zrotation Yrotation Xrotation
				JOINT Head
				{
					OFFSET 0.104070 1.761360 -0.123970 
					CHANNELS 3 Zrotation Yrotation Xrotation
					End Site
					{
						OFFSET 0.000000 0.000000 0.000000 
					}
				}
			}
			JOINT LeftArm
			{
				OFFSET 3.362410 1.200890 -0.311210 
				CHANNELS 3 Zrotation Yrotation Xrotation
				JOINT LeftForeArm
				{
					OFFSET 4.983000 -0.000000 -0.000000 
					CHANNELS 3 Zrotation Yrotation Xrotation
					JOINT LeftHand
					{
						OFFSET 3.483560 -0.000000 -0.000000 
						CHANNELS 3 Zrotation Yrotation Xrotation
						JOINT LeftHandIndex1
						{
							OFFSET 0.715260 -0.000000 -0.000000 
							CHANNELS 3 Zrotation Yrotation Xrotation
							End Site
							{
								OFFSET 0.000000 0.000000 0.000000 
							}
						}
					}
				}
			}
			JOINT RightArm
			{
				OFFSET -3.136600 1.374050 -0.404650 
				CHANNELS 3 Zrotation Yrotation Xrotation
				JOINT RightForeArm
				{
					OFFSET -5.241900 -0.000000 -0.000000 
					CHANNELS 3 Zrotation Yrotation Xrotation
					JOINT RightHand
					{
						OFFSET -3.444170 -0.000000 -0.000000 
						CHANNELS 3 Zrotation Yrotation Xrotation
						JOINT RightHandIndex1
						{
							OFFSET -0.622530 -0.000000 -0.000000 
							CHANNELS 3 Zrotation Yrotation Xrotation
							End Site
							{
								OFFSET 0.000000 0.000000 0.000000 
							}
						}
					}
				}
			}
		}
	}
}
MOTION
Frames: 7
Frame Time: 0.041667
-1.067223 17.977419 -35.459892 -0.021047 -0.709712 2.948394 -18.759830 -6.944261 -5.921786 2.019087 9.421025 26.276090 0.041642 2.862874 7.361793 0.000000 0.000000 0.000000 21.691813 3.324412 -8.507773 -3.493241 -10.989808 30.696152 -0.150610 -1.589141 2.137172 0.000000 0.000000 0.000000 0.520168 -1.404763 -1.381787 7.932078 -0.369591 -4.352119 9.602508 -16.164440 8.525568 5.862400 -8.291100 8.720200 -94.360543 4.342379 7.837579 13.175667 -21.542177 -1.829348 0.870409 1.041088 12.446103 -7.125000 0.000000 0.000000 86.680366 -4.438090 4.982148 -12.931161 19.324907 -2.123055 0.338831 0.457772 -7.331277 7.125000 0.000000 0.000000 
-1.078229 17.980760 -35.466181 0.002892 -0.509861 3.137932 -18.666724 -7.034072 -6.239084 2.031122 9.444718 26.351129 0.041420 2.862028 7.360984 0.000000 0.000000 0.000000 21.725619 3.421236 -8.755256 -3.504291 -10.985460 30.724528 -0.149234 -1.582175 2.137095 0.000000 0.000000 0.000000 0.612135 -1.728499 -1.693976 8.197868 -0.471919 -4.918936 9.886210 -15.802507 8.225862 6.193100 -8.192800 8.367000 -94.560156 5.245233 7.654655 13.369851 -21.828768 -1.900492 0.856926 1.049698 12.213865 -7.125000 0.000000 0.000000 86.431314 -5.227903 5.607516 -12.921854 19.349704 -2.150540 0.333215 0.416347 -7.501743 7.125000 0.000000 0.000000 
-1.077541 17.979777 -35.451147 0.083816 -0.815865 3.107498 -18.828642 -6.968918 -6.119280 2.029331 9.441674 26.339161 0.041646 2.862287 7.359566 0.000000 0.000000 0.000000 21.600668 3.558196 -8.639849 -3.510424 -11.005526 30.772808 -0.150039 -1.584678 2.132837 0.000000 0.000000 0.000000 0.491892 -1.413294 -1.478163 7.946867 -0.352596 -4.629622 9.725401 -16.104106 8.520113 5.922100 -8.258300 8.733400 -94.358106 4.459253 8.030756 13.334292 -21.785148 -1.877900 0.869295 1.056692 12.160049 -7.125000 0.000000 0.000000 86.704072 -4.548963 5.280325 -12.920377 19.370202 -2.165273 0.321045 0.403920 -7.504498 7.125000 0.000000 0.000000 
-1.084517 17.980465 -35.450656 0.135987 -0.687444 3.133700 -18.819290 -6.951434 -6.213859 2.028209 9.437927 26.330785 0.041279 2.861885 7.360616 0.000000 0.000000 0.000000 21.585499 3.592994 -8.683854 -3.519949 -11.007965 30.809416 -0.148994 -1.579910 2.133776 0.000000 0.000000 0.000000 0.603650 -1.798195 -1.993999 8.290681 -0.440979 -5.745402 9.988377 -15.535361 8.279635 6.354800 -8.116600 8.204100 -94.597697 6.150456 7.739532 13.551296 -22.073871 -1.957206 0.852629 1.068230 11.843558 -7.125000 0.000000 0.000000 86.337880 -6.074322 6.203468 -13.004711 19.500861 -2.209193 0.316324 0.409654 -7.767204 7.125000 0.000000 0.000000 
-1.092575 17.979482 -35.452031 0.156535 -0.405771 3.153629 -18.787309 -6.915008 -6.236070 2.020009 9.421773 26.281048 0.041312 2.862435 7.362510 0.000000 0.000000 0.000000 21.601171 3.417409 -8.747425 -3.522572 -11.020165 30.838903 -0.149315 -1.581339 2.133410 0.000000 0.000000 0.000000 0.467553 -1.643431 -1.789975 7.991608 -0.401137 -5.537172 9.825380 -16.003428 8.656902 6.038400 -8.256000 8.618500 -94.209572 5.424469 8.695119 13.620033 -22.193630 -1.986676 0.860119 1.058371 11.585164 -7.125000 0.000000 0.000000 86.783614 -5.248588 5.310432 -12.933246 19.383125 -2.174970 0.318198 0.397011 -7.380289 7.125000 0.000000 0.000000 
-1.097193 17.978598 -35.446922 0.195801 -0.358825 3.155512 -18.813954 -6.959134 -6.193557 2.013447 9.408494 26.240533 0.041234 2.862708 7.363714 0.000000 0.000000 0.000000 21.578242 3.334252 -8.769016 -3.525323 -11.024622 30.856952 -0.149118 -1.580069 2.132523 0.000000 0.000000 0.000000 0.530291 -1.804542 -1.899437 8.181087 -0.453902 -5.720312 9.749218 -15.817506 8.645836 6.118600 -8.216100 8.477400 -94.350369 5.930163 8.853403 13.784295 -22.450882 -2.056845 0.853263 1.051456 11.329188 -7.125000 0.000000 0.000000 86.596337 -5.556913 5.557362 -12.939450 19.388826 -2.179010 0.315389 0.401234 -7.243634 7.125000 0.000000 0.000000 
-1.101320 17.979679 -35.436801 0.227481 -0.347186 3.221471 -18.831100 -7.049775 -6.170454 2.009952 9.401744 26.219120 0.041298 2.863014 7.364208 0.000000 0.000000 0.000000 21.577488 3.385568 -8.785703 -3.527382 -11.027887 30.867415 -0.149204 -1.580391 2.132240 0.000000 0.000000 0.000000 0.566087 -1.853211 -1.823259 8.274513 -0.489279 -5.446625 9.611090 -15.782253 8.696793 6.063200 -8.196400 8.537200 -94.456074 5.638534 9.033162 13.787662 -22.475256 -2.057280 0.859318 1.052570 11.283444 -7.125000 0.000000 0.000000 86.495590 -5.233003 5.631236 -12.928844 19.387024 -2.178736 0.319070 0.383058 -7.127048 7.125000 0.000000 0.000000 
